<svg xmlns="http://www.w3.org/2000/svg" viewBox="0 0 172.56 32.39"><title>white-versionAsset 3Naijadevs</title><g id="Layer_2" data-name="Layer 2"><g id="Layer_1-2" data-name="Layer 1"><rect x="17.42" y="4.27" width="4.34" height="23.85" fill="#fff" opacity="0.5"/><polyline points="31.09 8.52 27.68 8.52 27.68 4.27 35.62 4.27 35.62 8.52 31.09 8.52" fill="#fff" opacity="0.5"/><polygon points="37.98 27.9 32.44 27.9 17.42 4.27 21.76 4.27 37.98 27.9" fill="#fff"/><polygon points="37.88 27.9 32.88 27.9 43.46 11.71 46.31 15.18 37.88 27.9" fill="#fff"/><polygon points="46.31 15.15 43.84 18.91 31.59 4.27 37.3 4.27 46.31 15.15" fill="#fff"/><polygon points="8.43 27.9 13.43 27.9 2.85 11.71 0 15.18 8.43 27.9" fill="#fff" opacity="0.5"/><polygon points="0 15.15 2.47 18.91 14.72 4.27 9.02 4.27 0 15.15" fill="#fff"/><text transform="translate(54 23.88) scale(1.04 1)" font-size="28.35" fill="#fff" font-family="TitilliumWeb-SemiBold, Titillium Web" font-weight="700">naija<tspan x="57.91" y="0" letter-spacing="0em" opacity="0.5">d</tspan><tspan x="73.22" y="0" letter-spacing="-0.01em" opacity="0.5">e</tspan><tspan x="87.42" y="0" letter-spacing="-0.01em" opacity="0.5">v</tspan><tspan x="101.17" y="0" opacity="0.5">s</tspan></text></g></g></svg>