<svg xmlns="http://www.w3.org/2000/svg" viewBox="0 0 175.53 28.05"><title>normalAsset 4Naijadevs</title><g id="Layer_2" data-name="Layer 2"><g id="Layer_1-2" data-name="Layer 1"><rect x="17.42" width="4.34" height="23.85" fill="#0a6566"/><polyline points="31.09 4.25 27.68 4.25 27.68 0 35.62 0 35.62 4.25 31.09 4.25" fill="#0a6566"/><polygon points="37.98 23.63 32.44 23.63 17.42 0 21.76 0 37.98 23.63" fill="#00b1b3"/><polygon points="37.88 23.63 32.88 23.63 43.46 7.44 46.31 10.91 37.88 23.63" fill="#00b1b3"/><polygon points="46.31 10.88 43.84 14.64 31.59 0 37.3 0 46.31 10.88" fill="#00b1b3"/><polygon points="8.43 23.63 13.43 23.63 2.85 7.44 0 10.91 8.43 23.63" fill="#0a6566"/><polygon points="0 10.88 2.47 14.64 14.72 0 9.02 0 0 10.88" fill="#00b1b3"/><path d="M56.32,21.61V2.19H62l6.11,16.64h.44V2.19h3.26V21.61H66.24L60,4.94h-.41V21.61Z" fill="#00b1b3"/><path d="M86.94,11.8v6.46a1.32,1.32,0,0,0,.34.92,1.65,1.65,0,0,0,1,.38l-.09,2.35a6.34,6.34,0,0,1-3.9-1,11.51,11.51,0,0,1-4.73,1q-4.38,0-4.37-4.51a3.78,3.78,0,0,1,1.19-3.12A6.63,6.63,0,0,1,80,13.14l3.79-.31v-1a2,2,0,0,0-.51-1.59,2.22,2.22,0,0,0-1.51-.45q-1.88,0-4.7.23l-.94.06L76,7.86a26.39,26.39,0,0,1,5.89-.74,5.54,5.54,0,0,1,3.88,1.12A4.69,4.69,0,0,1,86.94,11.8Zm-6.58,3.52a1.93,1.93,0,0,0-2,2.13q0,2,1.79,2a11.72,11.72,0,0,0,3.11-.45l.53-.17V15Z" fill="#00b1b3"/><path d="M91,5V1.77h3.2V5Zm0,16.58V7.44h3.2V21.61Z" fill="#00b1b3"/><path d="M98.07,21.07V7.44h3.17V21.1a6.79,6.79,0,0,1-1,4.11A11.72,11.72,0,0,1,96.16,28l-1.26-2.3a9.57,9.57,0,0,0,2.61-2A4.72,4.72,0,0,0,98.07,21.07Zm0-16V1.77h3.17V5Z" fill="#00b1b3"/><path d="M116,11.8v6.46a1.32,1.32,0,0,0,.34.92,1.65,1.65,0,0,0,1,.38l-.09,2.35a6.34,6.34,0,0,1-3.9-1,11.51,11.51,0,0,1-4.73,1q-4.38,0-4.37-4.51a3.78,3.78,0,0,1,1.19-3.12,6.63,6.63,0,0,1,3.66-1.16l3.79-.31v-1a2,2,0,0,0-.51-1.59,2.22,2.22,0,0,0-1.51-.45q-1.88,0-4.7.23l-.94.06-.12-2.18a26.39,26.39,0,0,1,5.89-.74,5.54,5.54,0,0,1,3.88,1.12A4.69,4.69,0,0,1,116,11.8Zm-6.58,3.52a1.93,1.93,0,0,0-2,2.13q0,2,1.79,2a11.72,11.72,0,0,0,3.11-.45l.53-.17V15Z" fill="#00b1b3"/><path d="M132,1.54V21.61h-3.17v-.74a9.05,9.05,0,0,1-3.93,1,5.07,5.07,0,0,1-4.21-1.67q-1.34-1.67-1.34-5.61t1.48-5.73a5.67,5.67,0,0,1,4.62-1.79,23.73,23.73,0,0,1,3.35.37v-6Zm-3.7,17.12.5-.2V10.08a20.67,20.67,0,0,0-3.26-.28q-3,0-3,4.76a6.78,6.78,0,0,0,.69,3.61,2.46,2.46,0,0,0,2.19,1A8,8,0,0,0,128.31,18.66Z" fill="gray"/><path d="M146.34,19.06l.82-.08.06,2.3a31.46,31.46,0,0,1-5.93.65q-3.26,0-4.68-1.73t-1.42-5.53q0-7.54,6.37-7.54,6.17,0,6.17,6.49l-.21,2.21h-9.1a3.79,3.79,0,0,0,.79,2.58,3.83,3.83,0,0,0,2.85.82Q144.14,19.23,146.34,19.06Zm-1.76-5.61a4.71,4.71,0,0,0-.69-2.93,2.87,2.87,0,0,0-2.33-.84,3,3,0,0,0-2.39.88,4.55,4.55,0,0,0-.78,2.89Z" fill="gray"/><path d="M149.22,7.44h3.35L155.39,19h.94l2.94-11.54h3.26L158.7,21.61H153Z" fill="gray"/><path d="M175,10.36a43.78,43.78,0,0,0-5-.45,4.62,4.62,0,0,0-2.16.35,1.2,1.2,0,0,0-.6,1.12,1.1,1.1,0,0,0,.66,1.08,15.27,15.27,0,0,0,3.11.72,7.32,7.32,0,0,1,3.48,1.29,3.94,3.94,0,0,1,1,3.12A3.75,3.75,0,0,1,174,20.88a7.47,7.47,0,0,1-4.33,1,27,27,0,0,1-4.52-.48l-.91-.14.12-2.58a45.11,45.11,0,0,0,5.08.45,4.85,4.85,0,0,0,2.22-.37,1.29,1.29,0,0,0,.66-1.22,1.21,1.21,0,0,0-.63-1.18,12.91,12.91,0,0,0-3-.71,8.21,8.21,0,0,1-3.51-1.2,3.51,3.51,0,0,1-1.12-3,3.71,3.71,0,0,1,1.54-3.26,6.74,6.74,0,0,1,3.95-1.08,29,29,0,0,1,4.61.45l.91.17Z" fill="gray"/></g></g></svg>
