<?xml version="1.0" standalone="no"?>
<!DOCTYPE svg PUBLIC "-//W3C//DTD SVG 20010904//EN"
 "http://www.w3.org/TR/2001/REC-SVG-20010904/DTD/svg10.dtd">
<svg version="1.0" xmlns="http://www.w3.org/2000/svg"
 width="1022.000000pt" height="1022.000000pt" viewBox="0 0 1022.000000 1022.000000"
 preserveAspectRatio="xMidYMid meet">
<metadata>
Created by potrace 1.11, written by Peter Selinger 2001-2013
</metadata>
<g transform="translate(0.000000,1022.000000) scale(0.100000,-0.100000)"
fill="#000000" stroke="none">
<path d="M1953 7693 c-21 -27 -43 -52 -49 -58 -6 -5 -53 -62 -105 -125 -52
-63 -102 -124 -112 -135 -10 -11 -35 -41 -55 -67 -20 -27 -40 -48 -44 -48 -4
0 -8 -5 -8 -11 0 -7 -10 -21 -22 -33 -13 -12 -35 -37 -50 -56 -15 -19 -37 -47
-50 -62 -13 -15 -33 -40 -45 -56 -12 -16 -33 -40 -45 -54 -21 -23 -66 -77
-110 -132 -10 -11 -23 -28 -31 -36 -7 -8 -55 -67 -107 -130 -52 -63 -99 -120
-105 -126 -5 -6 -23 -28 -40 -48 -16 -21 -38 -48 -49 -60 -10 -11 -35 -41 -55
-66 -20 -25 -38 -47 -41 -50 -3 -3 -35 -41 -70 -85 -36 -43 -72 -86 -80 -95
-8 -9 -31 -35 -50 -59 -31 -38 -53 -64 -91 -109 -6 -8 -47 -57 -91 -110 -43
-54 -87 -106 -96 -117 -10 -11 -36 -42 -57 -70 -22 -27 -43 -52 -46 -55 -4 -3
-39 -45 -79 -95 -41 -49 -76 -92 -79 -95 -3 -3 -25 -29 -49 -57 -34 -42 -41
-56 -33 -70 7 -14 216 -332 271 -413 86 -127 931 -1404 945 -1427 11 -18 23
-33 27 -33 4 0 8 -4 8 -9 0 -7 152 -244 177 -276 5 -5 38 -55 74 -110 36 -55
101 -154 145 -220 43 -66 82 -121 86 -123 5 -2 8 -7 8 -12 0 -4 20 -37 45 -74
24 -37 48 -74 54 -83 8 -15 56 -17 545 -17 295 -1 543 1 551 4 10 4 -17 53
-100 179 -63 96 -116 177 -117 180 -2 4 -42 65 -89 136 -215 326 -319 487
-319 495 0 4 -4 10 -8 12 -10 4 -142 206 -142 218 0 4 -4 10 -8 12 -5 2 -32
39 -60 83 -28 44 -56 87 -62 95 -5 8 -60 93 -122 187 -62 95 -192 293 -288
439 -96 147 -178 275 -181 283 -4 9 -14 23 -23 30 -9 7 -16 17 -16 21 0 4 -50
83 -111 175 -61 92 -113 173 -115 180 -4 10 27 57 56 85 5 5 89 106 120 143 8
10 22 27 30 37 8 9 32 37 52 61 20 24 65 78 100 119 35 42 79 95 98 119 19 24
42 51 51 60 8 9 33 38 55 66 21 27 46 56 54 65 8 9 24 28 35 41 45 55 120 144
125 149 3 3 25 30 50 60 59 72 83 100 95 114 6 6 42 49 80 96 39 46 77 92 85
101 8 9 22 25 30 35 19 23 333 399 363 434 12 14 57 68 101 120 43 52 83 97
87 98 5 2 9 8 9 14 0 5 6 15 13 22 14 14 50 57 162 191 37 44 77 91 89 105 98
116 116 139 116 144 0 3 -281 6 -624 6 l-625 0 -38 -47z"/>
<path d="M3844 5110 l0 -2630 478 0 478 0 1 23 c1 41 0 152 -2 157 -1 3 0 10
1 15 1 6 2 28 1 50 -1 22 -1 47 -1 55 -1 8 1 36 2 63 2 26 0 47 -4 47 -4 0 -3
12 1 28 5 15 4 37 0 50 -5 12 -5 22 -1 22 8 0 6 85 -2 106 -3 8 -2 14 2 14 4
0 7 27 7 60 0 33 -3 60 -7 60 -4 0 -5 7 -2 15 9 22 10 145 2 145 -4 0 -5 7 -1
15 8 23 9 375 1 375 -4 0 -5 6 -2 14 9 22 10 226 2 226 -4 0 -5 6 -2 14 8 22
10 156 2 156 -4 0 -5 7 -2 15 9 23 10 145 1 145 -5 0 -5 5 -1 11 5 9 9 188 4
214 -1 6 -1 15 0 20 1 6 2 28 1 50 -1 22 -1 47 -1 55 -1 8 1 36 2 63 2 26 0
47 -4 47 -4 0 -3 12 1 28 5 15 4 37 0 50 -5 12 -5 22 -1 22 8 0 6 85 -2 106
-3 8 -2 14 2 14 8 0 8 128 -1 136 -3 3 -2 16 3 29 5 13 6 25 3 28 -5 6 -5 41
0 110 1 21 -1 41 -5 44 -5 2 -6 9 -2 14 5 9 8 83 4 104 -1 6 -1 15 0 20 5 24
3 286 -3 291 -3 3 -2 16 3 29 5 13 6 25 3 28 -5 6 -5 41 0 110 1 21 -1 41 -5
43 -4 3 -4 15 0 27 4 12 6 38 4 57 -3 42 -2 123 2 127 1 2 9 -9 17 -25 8 -15
18 -31 22 -37 26 -33 106 -162 107 -172 0 -7 4 -13 8 -13 4 0 24 -27 43 -60
18 -33 37 -60 42 -60 4 0 7 -4 7 -10 0 -5 30 -55 66 -112 36 -57 76 -119 88
-138 12 -19 48 -74 79 -122 31 -48 57 -90 57 -93 0 -3 5 -11 11 -18 14 -16
207 -318 216 -337 4 -8 17 -29 30 -46 13 -17 23 -34 23 -38 0 -4 5 -12 10 -19
21 -25 60 -88 60 -97 0 -6 5 -10 10 -10 6 0 10 -7 10 -15 0 -8 5 -15 10 -15 6
0 10 -7 10 -15 0 -8 4 -15 9 -15 5 0 11 -8 15 -17 3 -10 14 -30 23 -44 10 -15
40 -62 67 -105 26 -44 53 -82 58 -85 5 -3 9 -8 7 -10 -1 -2 16 -31 37 -64 21
-33 43 -68 49 -78 5 -9 46 -73 90 -142 44 -69 87 -137 95 -150 61 -99 255
-401 259 -405 3 -3 13 -18 21 -33 8 -15 80 -129 160 -254 80 -124 154 -240
165 -258 73 -119 99 -161 104 -165 8 -6 29 -41 38 -60 4 -8 11 -19 15 -25 5
-5 21 -30 37 -55 15 -25 50 -79 77 -120 27 -41 55 -87 64 -101 41 -70 -27 -63
631 -64 327 0 602 1 612 3 9 3 17 10 17 17 0 15 79 138 92 143 4 2 8 7 8 12 0
5 49 82 108 172 399 601 487 734 491 743 2 5 12 18 23 29 10 11 18 25 18 32 0
7 3 14 8 16 4 2 45 62 92 133 47 72 90 136 97 143 6 6 15 21 18 32 3 11 10 20
13 20 4 0 18 20 32 45 14 25 28 45 32 45 5 0 8 5 8 11 0 6 8 21 18 34 21 28
29 40 93 139 28 43 55 84 60 90 5 6 42 60 81 121 39 60 75 114 80 120 10 12
111 166 118 180 3 6 23 36 45 69 22 32 45 66 50 75 6 9 65 99 133 199 67 101
122 188 122 193 0 5 -7 12 -15 15 -8 4 -15 10 -15 15 0 5 -11 22 -24 37 -13
15 -88 104 -165 197 -78 94 -158 190 -179 214 -20 24 -44 54 -52 65 -8 12 -23
30 -33 41 -10 11 -33 37 -50 59 -18 21 -48 57 -67 80 -19 23 -51 61 -70 85
-19 24 -40 48 -45 55 -13 14 -216 258 -379 456 -71 85 -145 175 -167 200 -21
25 -52 63 -69 85 -17 22 -36 45 -43 50 -7 6 -24 26 -38 45 -15 19 -37 46 -49
60 -12 14 -34 41 -49 60 -14 19 -31 40 -37 45 -6 6 -41 48 -79 95 -38 47 -73
90 -79 95 -9 8 -55 64 -101 123 -5 7 -17 21 -25 30 -9 9 -49 56 -89 105 l-73
87 -1062 0 -1061 0 2 -457 c1 -252 2 -463 2 -469 1 -9 213 -12 822 -12 l822 0
26 -28 c34 -38 78 -89 121 -144 19 -24 44 -53 55 -64 11 -12 38 -44 60 -71 22
-28 44 -55 50 -61 5 -6 24 -28 40 -49 17 -22 37 -46 46 -54 8 -9 94 -110 189
-226 96 -115 177 -212 180 -215 3 -3 37 -43 75 -90 38 -47 74 -90 80 -96 5 -6
28 -32 50 -59 22 -26 45 -53 50 -59 6 -6 30 -36 55 -66 25 -30 49 -60 55 -66
5 -6 28 -33 50 -60 22 -26 55 -65 73 -85 34 -39 38 -53 21 -72 -10 -11 -91
-135 -259 -393 -35 -54 -68 -100 -72 -102 -4 -2 -8 -8 -8 -13 0 -7 -140 -227
-229 -359 -24 -35 -193 -295 -266 -408 -44 -68 -86 -130 -92 -137 -7 -8 -13
-16 -13 -19 0 -6 -86 -139 -103 -161 -4 -5 -47 -70 -94 -143 l-86 -133 -28 33
c-15 18 -34 44 -41 58 -7 14 -16 27 -19 30 -3 3 -48 68 -100 145 -51 77 -96
142 -99 145 -3 3 -39 55 -80 115 -40 61 -91 135 -113 165 -21 30 -75 109 -119
175 -45 66 -84 122 -87 125 -3 3 -53 75 -110 160 -58 85 -107 157 -110 160 -3
3 -10 13 -16 22 -5 10 -55 83 -110 163 -55 80 -104 153 -110 162 -13 22 -20
32 -50 68 -14 17 -25 34 -25 38 0 4 -5 13 -11 20 -11 13 -308 444 -497 722
-64 94 -118 172 -121 175 -3 3 -32 43 -63 90 -31 47 -90 133 -130 191 -144
210 -183 266 -256 374 -42 61 -100 146 -131 190 -95 137 -156 226 -166 244 -6
10 -18 25 -28 35 -9 10 -17 23 -17 31 0 7 -4 15 -8 17 -8 3 -60 78 -240 343
-34 50 -65 95 -69 100 -5 6 -19 25 -31 43 l-23 32 -478 0 -477 0 0 -2630z"/>
</g>
</svg>
