<?xml version="1.0" standalone="no"?>
<!DOCTYPE svg PUBLIC "-//W3C//DTD SVG 20010904//EN"
 "http://www.w3.org/TR/2001/REC-SVG-20010904/DTD/svg10.dtd">
<svg version="1.0" xmlns="http://www.w3.org/2000/svg"
 width="260.000000pt" height="260.000000pt" viewBox="0 0 260.000000 260.000000"
 preserveAspectRatio="xMidYMid meet">
<metadata>
Created by potrace 1.11, written by Peter Selinger 2001-2013
</metadata>
<g transform="translate(0.000000,260.000000) scale(0.100000,-0.100000)"
fill="#000000" stroke="none">
<path d="M453 1908 c-28 -35 -59 -73 -70 -84 -10 -12 -88 -106 -173 -210 -85
-103 -167 -201 -183 -218 -15 -17 -25 -37 -22 -45 3 -8 109 -170 236 -361
l229 -347 140 0 c77 -1 140 2 140 4 0 5 -39 65 -264 408 -58 88 -123 188 -145
222 l-40 62 187 223 c103 123 220 262 260 310 39 47 72 88 72 92 0 3 -71 6
-158 6 l-159 0 -50 -62z"/>
<path d="M979 1958 c0 -7 -1 -309 -2 -670 l-2 -658 123 0 c90 0 122 3 123 13
0 6 1 218 1 469 1 252 4 456 8 453 4 -2 37 -53 74 -112 37 -59 106 -169 154
-244 48 -75 92 -144 99 -155 7 -10 38 -59 69 -109 31 -49 88 -138 126 -196
l68 -106 155 0 154 0 229 346 c126 190 232 352 236 358 4 8 -89 128 -246 318
l-252 305 -272 0 -271 0 -2 -120 -1 -120 212 -1 213 0 160 -193 c88 -105 160
-194 160 -197 0 -6 -228 -358 -281 -435 l-31 -44 -117 172 c-64 95 -168 247
-231 338 -176 256 -286 417 -351 512 l-59 87 -122 1 c-92 0 -123 -3 -124 -12z"/>
</g>
</svg>
