<?xml version="1.0" standalone="no"?>
<!DOCTYPE svg PUBLIC "-//W3C//DTD SVG 20010904//EN"
 "http://www.w3.org/TR/2001/REC-SVG-20010904/DTD/svg10.dtd">
<svg version="1.0" xmlns="http://www.w3.org/2000/svg"
 width="512.000000pt" height="512.000000pt" viewBox="0 0 512.000000 512.000000"
 preserveAspectRatio="xMidYMid meet">
<metadata>
Created by potrace 1.11, written by Peter Selinger 2001-2013
</metadata>
<g transform="translate(0.000000,512.000000) scale(0.100000,-0.100000)"
fill="#000000" stroke="none">
<path d="M0 2560 l0 -2560 2560 0 2560 0 0 2560 0 2560 -2560 0 -2560 0 0
-2560z m3025 1966 c129 -43 193 -82 286 -177 122 -123 188 -285 217 -529 4
-36 7 -724 7 -1530 l0 -1465 -30 -54 c-41 -74 -121 -131 -203 -146 -17 -3 -33
-1 -36 4 -4 5 -6 71 -7 147 l0 137 -67 -68 c-194 -196 -414 -286 -689 -280
-154 3 -247 25 -378 89 -272 133 -467 384 -530 682 -17 80 -23 285 -10 354 41
225 120 383 269 538 188 195 435 296 705 288 64 -2 123 -7 131 -10 8 -3 28 -8
44 -10 179 -31 394 -172 509 -336 17 -24 17 14 14 850 -1 481 -6 886 -10 899
-3 13 -14 49 -23 79 -54 188 -190 306 -379 329 -182 23 -336 -18 -480 -127
-74 -56 -114 -98 -168 -179 -35 -53 -81 -158 -93 -212 -13 -63 -16 -78 -22
-139 -4 -36 -9 -256 -10 -490 -3 -418 -4 -426 -26 -475 -40 -87 -121 -149
-211 -162 l-45 -6 2 899 3 899 24 40 c41 66 110 121 165 130 11 2 33 6 48 9
15 2 28 -1 31 -7 2 -7 3 -86 2 -176 l-2 -165 19 24 c175 216 337 322 557 364
37 7 120 12 186 11 99 -2 134 -7 200 -29z"/>
<path d="M2381 2274 c-161 -33 -277 -93 -379 -194 -187 -185 -260 -424 -213
-693 21 -120 100 -272 195 -375 68 -73 201 -164 271 -185 103 -30 141 -38 213
-42 273 -16 538 122 674 352 38 65 74 150 84 198 1 6 7 29 12 52 5 24 9 89 7
145 -4 178 -47 323 -134 448 -41 58 -156 165 -220 204 -146 89 -344 124 -510
90z"/>
</g>
</svg>
