<?xml version="1.0" standalone="no"?>
<!DOCTYPE svg PUBLIC "-//W3C//DTD SVG 20010904//EN"
 "http://www.w3.org/TR/2001/REC-SVG-20010904/DTD/svg10.dtd">
<svg version="1.0" xmlns="http://www.w3.org/2000/svg"
 width="2138.000000pt" height="2138.000000pt" viewBox="0 0 2138.000000 2138.000000"
 preserveAspectRatio="xMidYMid meet">
<metadata>
Created by potrace 1.11, written by Peter Selinger 2001-2013
</metadata>
<g transform="translate(0.000000,2138.000000) scale(0.100000,-0.100000)"
fill="#000000" stroke="none">
<path d="M0 10690 l0 -10690 10688 2 10687 3 3 10688 2 10687 -10690 0 -10690
0 0 -10690z m11759 8140 c107 -6 246 -17 310 -26 1144 -150 2061 -994 2356
-2169 86 -344 139 -696 177 -1185 13 -169 25 -4998 23 -9455 -1 -2619 4 -2410
-66 -2620 -97 -292 -313 -524 -620 -670 -114 -53 -229 -83 -361 -91 l-98 -7 0
612 0 612 -144 -163 c-214 -244 -374 -391 -626 -577 -555 -411 -1174 -648
-1890 -723 -164 -17 -630 -17 -785 0 -760 84 -1430 367 -2035 860 -151 123
-459 435 -582 590 -636 798 -920 1650 -895 2686 8 345 40 587 117 901 45 183
118 405 191 579 373 888 1072 1623 1974 2074 353 176 736 285 1190 338 214 25
722 26 925 1 552 -68 978 -213 1440 -490 412 -248 765 -578 1035 -969 38 -55
62 -82 67 -75 12 18 9 6443 -2 6707 -20 435 -67 704 -186 1053 -243 713 -757
1119 -1547 1222 -972 126 -1911 -281 -2526 -1095 -292 -387 -480 -832 -555
-1315 -57 -367 -65 -611 -76 -2355 -5 -844 -12 -1567 -15 -1606 -3 -39 -17
-112 -30 -163 -85 -315 -316 -590 -620 -737 -129 -63 -242 -92 -381 -101
l-101 -6 -6 78 c-12 135 -8 7001 3 7114 14 132 40 233 89 336 171 364 556 616
961 628 l85 2 3 -712 c1 -418 6 -713 11 -713 5 0 54 60 109 133 458 607 1041
1060 1662 1290 311 116 664 188 1008 207 204 11 202 11 411 0z"/>
<path d="M10240 9463 c-821 -56 -1489 -353 -2021 -899 -468 -481 -763 -1090
-865 -1789 -38 -255 -20 -676 42 -985 101 -510 334 -1008 660 -1415 371 -462
921 -831 1477 -991 280 -80 523 -114 827 -114 287 0 515 29 801 100 860 217
1541 769 1939 1575 220 445 312 844 312 1350 0 687 -179 1323 -516 1833 -468
710 -1203 1182 -2032 1306 -195 30 -449 41 -624 29z"/>
</g>
</svg>
