<?xml version="1.0" standalone="no"?>
<!DOCTYPE svg PUBLIC "-//W3C//DTD SVG 20010904//EN"
 "http://www.w3.org/TR/2001/REC-SVG-20010904/DTD/svg10.dtd">
<svg version="1.0" xmlns="http://www.w3.org/2000/svg"
 width="260.000000pt" height="260.000000pt" viewBox="0 0 260.000000 260.000000"
 preserveAspectRatio="xMidYMid meet">
<metadata>
Created by potrace 1.11, written by Peter Selinger 2001-2013
</metadata>
<g transform="translate(0.000000,260.000000) scale(0.100000,-0.100000)"
fill="#000000" stroke="none">
<path d="M1115 2573 c-507 -75 -920 -439 -1055 -930 -166 -606 132 -1251 698
-1510 248 -113 486 -143 782 -98 216 33 476 168 656 342 114 110 252 310 285
412 6 20 15 41 19 46 6 8 37 103 46 140 44 195 51 387 18 570 -23 133 -93 309
-173 435 -208 329 -511 526 -916 596 -72 12 -268 11 -360 -3z"/>
</g>
</svg>
