<?xml version="1.0" standalone="no"?>
<!DOCTYPE svg PUBLIC "-//W3C//DTD SVG 20010904//EN"
 "http://www.w3.org/TR/2001/REC-SVG-20010904/DTD/svg10.dtd">
<svg version="1.0" xmlns="http://www.w3.org/2000/svg"
 width="1077.000000pt" height="1077.000000pt" viewBox="0 0 1077.000000 1077.000000"
 preserveAspectRatio="xMidYMid meet">
<metadata>
Created by potrace 1.11, written by Peter Selinger 2001-2013
</metadata>
<g transform="translate(0.000000,1077.000000) scale(0.100000,-0.100000)"
fill="#000000" stroke="none">
<path d="M2224 10742 c-63 -46 -68 -68 -60 -250 4 -86 9 -179 11 -207 4 -59
13 -238 20 -380 3 -55 7 -143 9 -195 3 -52 8 -156 11 -230 4 -74 8 -169 11
-210 2 -41 6 -131 9 -200 3 -69 7 -172 10 -230 2 -58 7 -161 10 -230 2 -69 7
-179 10 -245 3 -66 8 -176 10 -245 6 -179 15 -427 20 -560 3 -63 7 -194 10
-290 3 -96 8 -231 10 -300 5 -148 13 -466 20 -745 7 -291 15 -576 20 -770 5
-168 10 -377 20 -775 3 -113 7 -320 10 -460 3 -140 7 -345 10 -455 3 -110 7
-297 10 -415 3 -118 7 -305 10 -415 8 -314 15 -600 20 -850 9 -454 29 -1145
51 -1789 5 -173 12 -204 53 -246 40 -42 66 -51 139 -46 38 3 81 8 94 11 12 3
39 7 58 9 55 7 123 17 150 22 14 2 61 9 105 15 44 5 87 12 95 14 8 2 44 7 80
10 36 4 67 8 70 10 3 1 32 6 65 9 33 4 71 9 85 11 14 2 45 6 70 10 82 12 95
14 140 20 44 5 99 13 150 20 14 2 45 6 70 10 44 5 101 13 150 20 14 2 63 9
110 15 47 6 96 13 110 15 14 2 48 7 75 10 28 4 57 8 65 10 8 2 47 7 85 11 39
3 72 8 75 9 3 2 33 7 65 10 33 4 68 9 79 11 10 2 44 6 75 9 31 4 63 8 71 10 8
2 33 6 55 9 74 10 130 17 155 21 46 7 105 15 155 20 28 3 75 10 105 15 30 5
78 12 105 15 28 3 61 8 75 10 14 2 48 6 75 10 28 3 57 8 65 10 8 2 42 6 75 10
33 3 87 10 120 15 33 5 83 12 110 15 28 4 61 8 75 10 14 2 63 9 110 15 47 6
96 13 110 15 14 2 48 6 75 10 28 3 61 8 75 10 58 8 108 15 150 20 25 3 61 8
80 11 61 8 103 14 185 24 44 6 97 13 118 16 21 3 53 7 70 9 59 7 202 26 228
30 15 3 47 7 70 10 24 3 60 7 79 10 19 2 55 7 80 10 25 3 61 7 80 10 19 3 55
7 80 10 25 3 56 8 70 10 14 2 48 7 75 10 28 3 64 7 80 9 17 3 53 7 80 11 28 3
61 8 75 10 14 2 50 7 80 10 177 20 240 81 246 240 3 110 14 487 19 675 2 85 7
245 10 355 10 368 15 519 20 735 3 118 8 292 10 385 14 530 29 1146 40 1615 6
268 15 615 20 765 3 77 7 241 10 365 4 124 8 279 10 345 2 66 6 212 10 325 13
455 25 786 40 1150 3 69 7 184 10 255 2 72 7 184 10 250 3 66 7 179 10 250 3
72 7 180 10 240 2 61 7 173 10 250 7 176 13 304 21 425 7 121 -12 208 -70 322
-49 97 -91 150 -178 224 -60 51 -223 130 -308 149 -48 11 -120 26 -138 30 -13
2 -31 6 -40 9 -9 2 -44 7 -77 11 -33 3 -67 8 -75 10 -8 2 -37 6 -65 10 -72 9
-266 35 -294 40 -13 2 -45 7 -70 11 -25 3 -57 7 -70 10 -13 2 -45 6 -70 10
-25 3 -57 7 -70 10 -32 5 -98 14 -141 20 -19 2 -71 9 -115 15 -44 6 -89 13
-100 14 -11 2 -54 8 -95 14 -41 6 -95 13 -120 16 -25 4 -58 8 -75 10 -28 4
-227 31 -305 41 -32 4 -68 9 -140 19 -14 2 -45 6 -70 9 -46 6 -251 32 -325 42
-50 6 -108 13 -160 20 -22 2 -56 6 -75 9 -19 3 -53 7 -75 9 -22 3 -60 8 -85
11 -97 12 -211 26 -335 40 -49 6 -122 15 -153 20 -13 2 -53 7 -90 11 -37 3
-76 8 -87 10 -11 2 -47 6 -80 9 -33 3 -72 8 -87 10 -15 3 -49 7 -75 10 -27 3
-66 7 -88 10 -22 2 -60 7 -85 9 -58 7 -137 16 -175 21 -16 2 -61 6 -100 10
-38 3 -81 8 -95 10 -14 3 -52 7 -85 10 -33 3 -76 8 -95 10 -51 7 -106 13 -180
20 -36 3 -81 8 -100 10 -19 2 -57 6 -85 9 -103 11 -161 17 -195 21 -31 4 -143
15 -290 30 -25 2 -70 7 -100 10 -98 11 -123 14 -235 21 l-110 6 -41 -30z
m3831 -667 c165 -14 281 -41 436 -99 446 -167 804 -561 951 -1046 25 -81 49
-184 63 -275 3 -16 10 -52 15 -80 9 -50 26 -185 35 -280 3 -27 9 -133 12 -235
9 -236 10 -6511 1 -6565 -12 -74 -19 -97 -43 -157 -46 -114 -143 -225 -258
-297 -46 -29 -137 -70 -171 -77 -55 -11 -142 -21 -153 -17 -10 4 -13 86 -15
344 l-3 340 -60 -72 c-170 -202 -406 -391 -645 -517 -184 -97 -443 -185 -610
-207 -19 -3 -48 -8 -63 -11 -90 -19 -476 -28 -572 -14 -196 30 -313 56 -445
100 -78 26 -103 37 -295 127 -47 22 -113 61 -209 125 -346 230 -645 583 -811
955 -64 144 -69 157 -93 233 -36 111 -50 170 -72 300 -6 36 -13 76 -16 90 -18
105 -24 454 -10 575 46 395 166 729 374 1039 36 54 71 103 77 110 6 6 28 34
50 61 65 84 275 286 375 362 217 164 442 286 655 354 149 49 269 72 480 94 52
6 314 6 385 1 107 -8 256 -32 350 -57 368 -97 712 -304 965 -580 49 -52 136
-165 161 -208 10 -17 22 -31 27 -31 10 0 3 3892 -7 3970 -9 66 -44 243 -56
285 -52 175 -98 281 -166 385 -52 79 -149 181 -228 239 -72 53 -216 121 -316
149 -72 20 -98 25 -185 38 -22 3 -51 7 -65 10 -29 5 -249 5 -300 -1 -72 -8
-127 -17 -185 -32 -33 -8 -67 -17 -75 -18 -28 -7 -75 -23 -130 -44 -369 -145
-682 -441 -858 -811 -45 -96 -104 -259 -116 -320 -33 -175 -34 -179 -41 -258
-3 -37 -8 -87 -11 -112 -9 -97 -16 -489 -19 -1230 -2 -426 -7 -788 -10 -805
-13 -67 -28 -111 -56 -168 -98 -204 -304 -347 -516 -361 l-63 -3 -1 41 c-4
216 0 3976 4 4021 29 278 279 510 572 529 l65 4 2 -406 3 -406 95 120 c168
211 369 396 568 521 142 89 364 188 465 208 9 2 21 6 26 9 11 7 143 35 196 42
22 3 46 7 54 10 8 2 62 7 120 11 58 3 107 7 108 8 5 3 189 -4 258 -10z"/>
<path d="M5068 4805 c-2 -1 -34 -5 -72 -9 -38 -4 -71 -8 -75 -10 -3 -2 -27 -7
-52 -10 -64 -9 -242 -60 -330 -95 -279 -110 -524 -300 -708 -546 -102 -137
-153 -224 -223 -385 -21 -47 -57 -144 -63 -170 -2 -8 -13 -51 -25 -95 -38
-147 -49 -250 -45 -425 2 -91 6 -181 10 -200 3 -19 10 -64 16 -100 14 -82 62
-255 96 -340 65 -165 192 -379 301 -506 56 -66 175 -185 212 -213 19 -14 42
-32 50 -40 37 -36 205 -138 305 -186 96 -46 233 -98 291 -109 10 -3 40 -9 67
-15 124 -29 243 -39 397 -36 74 2 146 6 160 9 14 3 43 7 65 10 61 8 171 32
267 60 593 173 1051 695 1164 1329 10 54 18 160 19 257 3 173 -2 240 -31 415
-2 17 -16 77 -30 135 -102 410 -349 764 -695 996 -206 138 -428 224 -679 264
-66 11 -383 23 -392 15z"/>
</g>
</svg>
